<?xml version="1.0" encoding="UTF-8"?>
<svg xmlns="http://www.w3.org/2000/svg" xmlns:xlink="http://www.w3.org/1999/xlink" width="45px" height="45px" viewBox="0 0 45 45" version="1.1">
<g id="surface1">
<path style=" stroke:none;fill-rule:nonzero;fill:rgb(0%,0%,0%);fill-opacity:1;" d="M 18.96875 2.691406 C 17.226562 3.007812 15.691406 3.828125 14.398438 5.128906 C 13.03125 6.5 12.234375 8.03125 11.917969 9.90625 C 11.808594 10.527344 11.808594 12.039062 11.917969 12.679688 C 12.398438 15.554688 14.402344 18.132812 17.046875 19.265625 C 18.15625 19.746094 18.914062 19.914062 20.222656 19.953125 C 21.902344 20.007812 23.105469 19.746094 24.496094 19.03125 C 28.808594 16.820312 30.5 11.511719 28.253906 7.242188 C 26.988281 4.839844 24.765625 3.210938 22.0625 2.699219 C 21.328125 2.554688 19.71875 2.554688 18.96875 2.691406 Z M 24.710938 7.46875 C 24.9375 7.59375 25.019531 7.800781 24.921875 7.988281 C 24.8125 8.191406 20.332031 15.167969 20.242188 15.265625 C 20.144531 15.375 16.882812 12.0625 16.882812 11.855469 C 16.882812 11.746094 17.210938 11.421875 17.320312 11.421875 C 17.371094 11.421875 18.011719 12.019531 18.742188 12.742188 L 20.078125 14.066406 L 22.164062 10.832031 C 23.945312 8.070312 24.40625 7.398438 24.554688 7.398438 C 24.570312 7.398438 24.640625 7.4375 24.710938 7.46875 Z M 24.710938 7.46875 "/>
<path style=" stroke:none;fill-rule:nonzero;fill:rgb(0%,0%,0%);fill-opacity:1;" d="M 37.105469 10.960938 C 35.726562 11.574219 34.425781 12.117188 34.230469 12.179688 C 34.03125 12.234375 33 12.359375 31.9375 12.449219 L 30.007812 12.605469 L 29.8125 13.398438 C 29.476562 14.75 29.09375 15.609375 28.351562 16.695312 C 26.027344 20.09375 21.617188 21.609375 17.664062 20.359375 C 16.214844 19.898438 14.921875 19.101562 13.792969 17.96875 C 12.957031 17.128906 12.441406 16.398438 11.953125 15.386719 C 11.773438 15.03125 11.59375 14.726562 11.546875 14.726562 C 11.492188 14.726562 11.085938 14.789062 10.632812 14.871094 C 10.179688 14.949219 9.785156 15.015625 9.757812 15.015625 C 9.71875 15.015625 9.699219 15.617188 9.699219 16.351562 L 9.699219 17.695312 L 11.035156 17.664062 L 12.378906 17.636719 L 12.523438 17.832031 C 12.660156 18.011719 12.660156 18.039062 12.550781 18.195312 C 12.40625 18.410156 12.148438 18.464844 11.023438 18.464844 C 10.539062 18.464844 10.042969 18.484375 9.921875 18.507812 L 9.699219 18.546875 L 9.699219 22.199219 L 10.472656 22.203125 C 10.898438 22.210938 11.910156 22.234375 12.738281 22.265625 L 14.222656 22.304688 L 14.222656 21.183594 C 14.222656 20.195312 14.238281 20.050781 14.355469 19.953125 C 14.519531 19.800781 14.753906 19.792969 14.898438 19.945312 C 14.992188 20.035156 15.015625 20.25 15.015625 21.183594 L 15.015625 22.320312 L 16.4375 22.371094 C 17.210938 22.390625 18.425781 22.4375 19.132812 22.457031 L 20.402344 22.507812 L 20.402344 22.183594 C 20.402344 21.789062 20.53125 21.601562 20.796875 21.601562 C 21.0625 21.601562 21.191406 21.789062 21.191406 22.167969 C 21.191406 22.464844 21.207031 22.480469 21.429688 22.515625 C 21.550781 22.535156 22.5 22.570312 23.527344 22.59375 C 24.554688 22.617188 25.90625 22.652344 26.527344 22.679688 L 27.65625 22.722656 L 27.65625 20.730469 C 27.65625 18.84375 27.664062 18.742188 27.800781 18.605469 C 27.980469 18.425781 28.175781 18.417969 28.324219 18.589844 C 28.433594 18.707031 28.449219 18.96875 28.449219 20.710938 C 28.449219 21.804688 28.457031 22.699219 28.46875 22.707031 C 28.476562 22.714844 29.757812 22.753906 31.304688 22.800781 L 34.121094 22.878906 L 34.121094 17.707031 L 31.664062 17.796875 C 29.554688 17.859375 29.179688 17.859375 29.046875 17.773438 C 28.855469 17.660156 28.828125 17.40625 28.980469 17.207031 C 29.074219 17.074219 29.261719 17.0625 31.582031 16.984375 C 32.960938 16.929688 34.09375 16.890625 34.101562 16.890625 C 34.101562 16.882812 34.121094 16.421875 34.136719 15.855469 C 34.15625 14.863281 34.167969 14.816406 34.398438 14.347656 C 34.535156 14.074219 34.734375 13.792969 34.863281 13.699219 C 34.996094 13.605469 36.152344 13.089844 37.441406 12.550781 L 39.792969 11.566406 L 42.617188 11.566406 L 42.859375 11.320312 C 43.058594 11.121094 43.105469 11.023438 43.105469 10.773438 C 43.105469 10.609375 43.046875 10.382812 42.980469 10.265625 C 42.765625 9.90625 42.464844 9.839844 40.964844 9.851562 L 39.617188 9.859375 Z M 37.105469 10.960938 "/>
<path style=" stroke:none;fill-rule:nonzero;fill:rgb(0%,0%,0%);fill-opacity:1;" d="M 7.757812 15.402344 C 6.382812 15.691406 6.394531 15.691406 6.132812 15.953125 C 5.933594 16.164062 5.925781 16.207031 5.90625 16.902344 C 5.898438 17.308594 5.914062 17.679688 5.957031 17.734375 C 6.003906 17.816406 6.277344 17.824219 7.464844 17.777344 L 8.910156 17.730469 L 8.910156 16.441406 C 8.910156 15.734375 8.902344 15.160156 8.894531 15.167969 C 8.878906 15.171875 8.371094 15.277344 7.757812 15.402344 Z M 7.757812 15.402344 "/>
<path style=" stroke:none;fill-rule:nonzero;fill:rgb(0%,0%,0%);fill-opacity:1;" d="M 6.910156 18.582031 L 5.957031 18.617188 L 5.996094 19.957031 C 6.019531 20.695312 6.058594 21.464844 6.078125 21.667969 L 6.113281 22.03125 L 6.808594 22.074219 C 7.1875 22.105469 7.820312 22.128906 8.210938 22.128906 L 8.910156 22.128906 L 8.910156 18.535156 L 8.390625 18.546875 C 8.101562 18.554688 7.4375 18.578125 6.910156 18.582031 Z M 6.910156 18.582031 "/>
<path style=" stroke:none;fill-rule:nonzero;fill:rgb(0%,0%,0%);fill-opacity:1;" d="M 6.140625 23.953125 C 6.222656 25.625 6.300781 25.710938 7.925781 25.875 L 8.910156 25.976562 L 8.910156 24.476562 C 8.910156 23.347656 8.886719 22.976562 8.820312 22.953125 C 8.773438 22.9375 8.140625 22.917969 7.414062 22.894531 L 6.101562 22.867188 Z M 6.140625 23.953125 "/>
<path style=" stroke:none;fill-rule:nonzero;fill:rgb(0%,0%,0%);fill-opacity:1;" d="M 9.699219 24.523438 C 9.699219 25.957031 9.707031 26.078125 9.828125 26.078125 C 9.894531 26.078125 10.890625 26.175781 12.035156 26.292969 C 13.183594 26.410156 14.136719 26.507812 14.175781 26.507812 C 14.203125 26.507812 14.222656 25.753906 14.222656 24.828125 L 14.222656 23.148438 L 13.707031 23.105469 C 13.417969 23.082031 12.398438 23.046875 11.445312 23.023438 L 9.699219 22.980469 Z M 9.699219 24.523438 "/>
<path style=" stroke:none;fill-rule:nonzero;fill:rgb(0%,0%,0%);fill-opacity:1;" d="M 15.015625 24.839844 L 15.015625 26.582031 L 15.179688 26.609375 C 15.265625 26.632812 15.566406 26.664062 15.839844 26.6875 C 16.429688 26.738281 19.5625 27.0625 20.0625 27.121094 L 20.402344 27.160156 L 20.402344 23.296875 L 18.664062 23.25 C 17.703125 23.222656 16.488281 23.183594 15.972656 23.152344 L 15.015625 23.113281 Z M 15.015625 24.839844 "/>
<path style=" stroke:none;fill-rule:nonzero;fill:rgb(0%,0%,0%);fill-opacity:1;" d="M 21.191406 25.265625 L 21.191406 27.210938 L 21.535156 27.257812 C 21.96875 27.3125 27.441406 27.871094 27.566406 27.871094 C 27.636719 27.871094 27.65625 27.40625 27.65625 25.695312 L 27.65625 23.511719 L 26.171875 23.46875 C 25.34375 23.441406 23.890625 23.398438 22.9375 23.367188 L 21.191406 23.328125 Z M 21.191406 25.265625 "/>
<path style=" stroke:none;fill-rule:nonzero;fill:rgb(0%,0%,0%);fill-opacity:1;" d="M 28.460938 25.761719 L 28.484375 27.980469 L 29.640625 28.097656 C 30.316406 28.167969 30.878906 28.261719 31.003906 28.324219 C 31.867188 28.777344 32.261719 30.085938 31.890625 31.285156 C 31.710938 31.875 31.222656 32.421875 30.777344 32.53125 C 30.617188 32.570312 28.671875 32.703125 26.4375 32.828125 C 24.203125 32.953125 21.28125 33.117188 19.933594 33.191406 C 18.589844 33.269531 15.4375 33.441406 12.929688 33.585938 C 7.070312 33.90625 7.371094 33.878906 7.113281 34.09375 C 6.859375 34.308594 6.726562 34.699219 6.78125 35.023438 C 6.835938 35.332031 7.1875 35.691406 7.492188 35.738281 C 7.621094 35.761719 13.445312 35.769531 20.453125 35.761719 L 33.175781 35.738281 L 33.488281 35.523438 C 33.671875 35.394531 33.867188 35.171875 33.964844 34.984375 L 34.121094 34.671875 L 34.121094 23.71875 L 33.679688 23.679688 C 33.425781 23.65625 32.148438 23.621094 30.832031 23.59375 L 28.449219 23.539062 Z M 28.460938 25.761719 "/>
<path style=" stroke:none;fill-rule:nonzero;fill:rgb(0%,0%,0%);fill-opacity:1;" d="M 9.949219 37.738281 C 9.476562 37.894531 9.246094 38.046875 8.902344 38.410156 C 8.03125 39.339844 8.054688 40.820312 8.945312 41.710938 C 9.390625 42.15625 9.839844 42.34375 10.527344 42.371094 C 11.277344 42.40625 11.789062 42.21875 12.269531 41.75 C 12.808594 41.21875 12.964844 40.835938 12.964844 40.015625 C 12.964844 39.410156 12.945312 39.289062 12.773438 38.957031 C 12.351562 38.167969 11.621094 37.703125 10.742188 37.667969 C 10.460938 37.660156 10.109375 37.6875 9.949219 37.738281 Z M 9.949219 37.738281 "/>
<path style=" stroke:none;fill-rule:nonzero;fill:rgb(0%,0%,0%);fill-opacity:1;" d="M 29.46875 37.777344 C 28.664062 38.058594 27.996094 38.921875 27.902344 39.8125 C 27.800781 40.710938 28.320312 41.660156 29.179688 42.132812 C 29.535156 42.335938 29.617188 42.347656 30.28125 42.347656 C 30.921875 42.347656 31.035156 42.328125 31.367188 42.15625 C 31.84375 41.902344 32.359375 41.328125 32.523438 40.855469 C 32.601562 40.632812 32.648438 40.277344 32.640625 39.964844 C 32.640625 38.371094 31.011719 37.25 29.46875 37.777344 Z M 29.46875 37.777344 "/>
</g>
</svg>
